<svg width="507" height="42" viewBox="0 0 507 42" fill="none" xmlns="http://www.w3.org/2000/svg">
<g clip-path="url(#clip0_612_2077)">
<path d="M24.4569 1.01489H18.1023L-0.00830078 40.9852H7.2677L21.2478 9.03756L35.2914 40.9852H42.5992L24.4569 1.01489Z" fill="#404042"/>
<path d="M94.7705 23.4307C94.7705 27.4182 93.8808 30.4049 92.1492 32.3112C91.1534 33.2946 89.9601 34.0552 88.6482 34.5427C87.3364 35.0302 85.9359 35.2334 84.5396 35.139C77.6925 35.139 74.3723 31.3104 74.3723 23.4307V1.01489H67.4775V23.6531C67.4775 29.3246 69.0662 33.7569 71.9734 36.8071C73.6317 38.3947 75.5987 39.6243 77.7522 40.4196C79.9058 41.2149 82.1999 41.5588 84.4919 41.4301C86.7756 41.5652 89.0628 41.2318 91.2129 40.4505C93.3629 39.6691 95.3305 38.4563 96.9946 36.8865C99.9812 33.8363 101.506 29.404 101.506 23.7008V1.01489H94.7705V23.4307Z" fill="#404042"/>
<path d="M127.194 7.19473H140.428V40.9852H147.259V7.19473H160.492V1.01489H127.194V7.19473Z" fill="#404042"/>
<path d="M214.856 17.6004H194.077V1.01489H187.182V40.9852H194.077V23.7802H214.856V40.9852H221.751V1.01489H214.856V17.6004Z" fill="#404042"/>
<path d="M283.39 34.8054V40.9852H254.016V1.01489H282.628V7.19473H260.895V34.8054H283.39Z" fill="#404042"/>
<path d="M340.677 28.5302L318.547 1.01489H313.002V40.9852H319.897V13.4699L342.027 40.9852H347.571V1.01489H340.677V28.5302Z" fill="#404042"/>
<path d="M374.261 7.19473H387.494V40.9852H394.325V7.19473H407.559V1.01489H374.261V7.19473Z" fill="#404042"/>
<path d="M441.143 1.01489H434.249V40.9852H441.143V1.01489Z" fill="#404042"/>
<path d="M501.988 30.7226C500.668 32.1481 499.061 33.2785 497.273 34.0396C495.486 34.8007 493.557 35.1754 491.614 35.1391C489.019 35.173 486.459 34.5383 484.18 33.2962C482.06 32.1015 480.304 30.356 479.096 28.2443C477.811 26.0466 477.137 23.5458 477.142 21.0001C477.137 18.4545 477.811 15.9536 479.096 13.7559C480.321 11.6303 482.107 9.8826 484.259 8.70399C486.538 7.4619 489.099 6.82727 491.694 6.86116C493.632 6.8178 495.557 7.18299 497.344 7.93296C499.132 8.68294 500.741 9.80089 502.068 11.2141L502.544 11.7224L507.104 7.30598L506.659 6.8135C504.831 4.76282 502.553 3.16405 500.003 2.14288C496.887 0.943896 493.553 0.420189 490.22 0.60642C486.887 0.792651 483.631 1.68457 480.669 3.22316C477.519 4.9216 474.893 7.44854 473.075 10.5309C471.211 13.7035 470.24 17.3208 470.263 21.0001C470.214 24.6723 471.158 28.2895 472.996 31.4693C474.811 34.543 477.424 37.0681 480.557 38.7771C483.868 40.5675 487.581 41.4808 491.344 41.4301C494.274 41.4581 497.182 40.9187 499.907 39.8415C502.466 38.7828 504.748 37.1525 506.579 35.0755L507.024 34.5672L502.465 30.1507L501.988 30.7226Z" fill="#404042"/>
</g>
<defs>
<clipPath id="clip0_612_2077">
<rect width="507.016" height="40.86" fill="white" transform="translate(-0.00830078 0.570068)"/>
</clipPath>
</defs>
</svg>
