<svg width="320" height="26" viewBox="0 0 320 26" fill="none" xmlns="http://www.w3.org/2000/svg">
<g clip-path="url(#clip0_5_410)">
<path d="M15.825 0.420013H11.825L0.425049 25.58H5.00505L13.805 5.47001L22.645 25.58H27.245L15.825 0.420013Z" fill="#231F20"/>
<path d="M60.085 14.53C60.085 17.04 59.525 18.92 58.435 20.12C57.8082 20.739 57.057 21.2178 56.2313 21.5246C55.4055 21.8315 54.524 21.9594 53.645 21.9C49.335 21.9 47.245 19.49 47.245 14.53V0.420013H42.905V14.67C42.905 18.24 43.905 21.03 45.735 22.95C46.7788 23.9493 48.017 24.7233 49.3726 25.224C50.7282 25.7246 52.1722 25.9411 53.615 25.86C55.0525 25.9451 56.4922 25.7352 57.8456 25.2434C59.199 24.7516 60.4375 23.9881 61.485 23C63.365 21.08 64.325 18.29 64.325 14.7V0.420013H60.085V14.53Z" fill="#231F20"/>
<path d="M80.4951 4.31001H88.8251V25.58H93.1251V4.31001H101.455V0.420013H80.4951V4.31001Z" fill="#231F20"/>
<path d="M135.675 10.86H122.595V0.420013H118.255V25.58H122.595V14.75H135.675V25.58H140.015V0.420013H135.675V10.86Z" fill="#231F20"/>
<path d="M178.815 21.69V25.58H160.325V0.420013H178.335V4.31001H164.655V21.69H178.815Z" fill="#231F20"/>
<path d="M214.875 17.74L200.945 0.420013H197.455V25.58H201.795V8.26001L215.725 25.58H219.215V0.420013H214.875V17.74Z" fill="#231F20"/>
<path d="M236.015 4.31001H244.345V25.58H248.645V4.31001H256.975V0.420013H236.015V4.31001Z" fill="#231F20"/>
<path d="M278.115 0.420013H273.775V25.58H278.115V0.420013Z" fill="#231F20"/>
<path d="M316.415 19.12C315.584 20.0173 314.573 20.7288 313.447 21.2079C312.322 21.687 311.108 21.9228 309.885 21.9C308.251 21.9213 306.64 21.5219 305.205 20.74C303.871 19.988 302.765 18.8892 302.005 17.56C301.196 16.1766 300.772 14.6024 300.775 13C300.772 11.3976 301.196 9.8234 302.005 8.44C302.776 7.10202 303.901 6.0019 305.255 5.26001C306.69 4.47815 308.301 4.07867 309.935 4.10001C311.155 4.07271 312.367 4.30258 313.492 4.77467C314.617 5.24675 315.63 5.95047 316.465 6.84001L316.765 7.16001L319.635 4.38001L319.355 4.07001C318.205 2.77917 316.77 1.7728 315.165 1.13001C313.204 0.375282 311.105 0.0456264 309.007 0.162853C306.909 0.280079 304.86 0.841513 302.995 1.81001C301.012 2.87911 299.359 4.46974 298.215 6.41001C297.042 8.40702 296.43 10.684 296.445 13C296.414 15.3115 297.008 17.5884 298.165 19.59C299.308 21.5248 300.952 23.1143 302.925 24.19C305.009 25.317 307.346 25.8919 309.715 25.86C311.559 25.8776 313.39 25.5381 315.105 24.86C316.716 24.1936 318.152 23.1674 319.305 21.86L319.585 21.54L316.715 18.76L316.415 19.12Z" fill="#231F20"/>
</g>
<defs>
<clipPath id="clip0_5_410">
<rect width="319.15" height="25.72" fill="white" transform="translate(0.425049 0.140015)"/>
</clipPath>
</defs>
</svg>
